<?xml version="1.0" standalone="no"?>
<!DOCTYPE svg PUBLIC "-//W3C//DTD SVG 20010904//EN"
 "http://www.w3.org/TR/2001/REC-SVG-20010904/DTD/svg10.dtd">
<svg version="1.0" xmlns="http://www.w3.org/2000/svg"
 width="120.000000pt" height="120.000000pt" viewBox="0 0 120.000000 120.000000"
 preserveAspectRatio="xMidYMid meet">
<metadata>
Created by potrace 1.14, written by Peter Selinger 2001-2017
</metadata>
<g transform="translate(0.000000,120.000000) scale(0.100000,-0.100000)"
fill="#000000" stroke="none">
<path d="M278 1015 c-32 -6 -58 -10 -58 -8 0 2 -26 -10 -58 -27 -135 -72 -179
-248 -100 -405 42 -84 97 -155 197 -253 134 -131 272 -206 393 -216 98 -7 130
62 69 147 -40 55 -37 88 9 82 39 -5 61 -18 147 -82 125 -93 188 -99 255 -23
48 53 70 132 55 190 -2 8 -7 29 -12 45 -7 28 -63 144 -75 155 -3 3 -18 23 -35
45 -27 38 -119 131 -161 165 -105 85 -288 166 -416 185 -77 12 -152 12 -210 0z
m587 -495 c40 -38 32 -66 -22 -74 -38 -7 -104 45 -110 87 -7 43 81 35 132 -13z"/>
</g>
</svg>
